<?xml version="1.0" standalone="no"?>
<!DOCTYPE svg PUBLIC "-//W3C//DTD SVG 20010904//EN"
 "http://www.w3.org/TR/2001/REC-SVG-20010904/DTD/svg10.dtd">
<svg version="1.0" xmlns="http://www.w3.org/2000/svg"
 width="96.000000pt" height="96.000000pt" viewBox="0 0 96.000000 96.000000"
 preserveAspectRatio="xMidYMid meet">
<metadata>
Created by potrace 1.14, written by Peter Selinger 2001-2017
</metadata>
<g transform="translate(0.000000,96.000000) scale(0.100000,-0.100000)"
fill="#000000" stroke="none">
<path d="M167 882 c-20 -22 -7 -45 35 -63 53 -21 136 -76 190 -127 74 -69 78
-88 11 -43 -118 78 -223 121 -299 121 -71 0 -81 -43 -34 -143 43 -92 114 -147
233 -182 31 -9 57 -18 57 -21 0 -3 -23 -64 -51 -136 -27 -72 -48 -136 -45
-144 8 -21 81 -65 118 -70 18 -3 38 -7 45 -9 20 -7 47 22 49 51 1 16 4 64 6
106 l3 78 37 15 c55 22 105 77 123 137 8 28 15 60 15 70 0 10 10 23 23 29 12
5 33 26 47 46 l24 35 83 -6 c67 -5 83 -3 83 8 0 17 -59 41 -124 50 -30 5 -58
17 -75 32 -14 13 -35 25 -46 25 -11 1 -30 3 -42 4 -30 3 -81 -29 -101 -64
l-16 -28 -49 54 c-60 65 -155 134 -230 167 -51 23 -56 24 -70 8z"/>
</g>
</svg>
